# xmcd
#
# Track frame offsets: 
#        150
#        24663
#        37869
#        50764
#        63824
#        69970
#        71650
#        76512
#        77649
#        86258
#        88783
#        100866
#        101810
#        109405
#        119409
#        130442
#        133870
#        146940
#        150780
#        153169
#        153890
#        155624
#        156485
#        166086
#        170941
#        177346
#        186532
#
# Disc length: 2548 seconds
#
# Revision: 0
# Processed by: cddbd v1.5.2PL0 Copyright (c) Steve Scherf et al.
# Submitted via: ExactAudioCopy v0.99pb5
#
DISCID=6a09f21b
DTITLE=Japanische Kampfhörspiele - Bilder Fressen Strom
DYEAR=2010
DGENRE=Grindpunk
TTITLE0=Die Schlachtung
TTITLE1=Die Kampagne
TTITLE2=Supermacht
TTITLE3=Milchkrieg
TTITLE4=Minderleister
TTITLE5=Deutschland Sucht Den Superstar
TTITLE6=Sorgsam Durcheinandergebracht
TTITLE7=Tod Im Tank
TTITLE8=Jochbeinbruch
TTITLE9=Everything Is Fine
TTITLE10=Wie Geht Nochmal Ficken?
TTITLE11=Goldene Mitte
TTITLE12=Rentnerparadies
TTITLE13=Lebendgewicht
TTITLE14=Fresssucht
TTITLE15=Dement
TTITLE16=Effizienz
TTITLE17=Deutsche
TTITLE18=Mimikri
TTITLE19=Der Arsch
TTITLE20=Angriff Auf Die Zivilisation
TTITLE21=Auto
TTITLE22=Schmerzrakete
TTITLE23=Die Reinigung
TTITLE24=Links
TTITLE25=Nachahmer
TTITLE26=Emotionen
EXTD=
EXTT0=
EXTT1=
EXTT2=
EXTT3=
EXTT4=
EXTT5=
EXTT6=
EXTT7=
EXTT8=
EXTT9=
EXTT10=
EXTT11=
EXTT12=
EXTT13=
EXTT14=
EXTT15=
EXTT16=
EXTT17=
EXTT18=
EXTT19=
EXTT20=
EXTT21=
EXTT22=
EXTT23=
EXTT24=
EXTT25=
EXTT26=
PLAYORDER=
